<?xml version="1.0" encoding="UTF-8" standalone="no"?>
<!-- Created with Inkscape (http://www.inkscape.org/) -->

<svg
   width="51.311577mm"
   height="17.035995mm"
   viewBox="0 0 51.311577 17.035995"
   version="1.1"
   id="svg8017"
   xmlns:inkscape="http://www.inkscape.org/namespaces/inkscape"
   xmlns:sodipodi="http://sodipodi.sourceforge.net/DTD/sodipodi-0.dtd"
   xmlns="http://www.w3.org/2000/svg"
   xmlns:svg="http://www.w3.org/2000/svg">
  <sodipodi:namedview
     id="namedview8019"
     pagecolor="#ffffff"
     bordercolor="#000000"
     borderopacity="0.25"
     inkscape:showpageshadow="2"
     inkscape:pageopacity="0.0"
     inkscape:pagecheckerboard="0"
     inkscape:deskcolor="#d1d1d1"
     inkscape:document-units="mm"
     showgrid="false"
     showguides="true">
    <sodipodi:guide
       position="-89.075924,18.405542"
       orientation="1,0"
       id="guide9405"
       inkscape:locked="false" />
  </sodipodi:namedview>
  <defs
     id="defs8014">
    <clipPath
       clipPathUnits="userSpaceOnUse"
       id="clipPath9565">
      <path
         d="M 1594.0001,807.60896 H 268.0002 V -9.7834204e-6 h 1325.9999 z"
         id="path9567"
         style="stroke-width:1.38994" />
    </clipPath>
    <clipPath
       clipPathUnits="userSpaceOnUse"
       id="clipPath9569">
      <path
         d="M 1594.0001,807.60896 H 268.0002 V -9.7834204e-6 h 1325.9999 z"
         id="path9571"
         style="stroke-width:1.38994" />
    </clipPath>
    <clipPath
       clipPathUnits="userSpaceOnUse"
       id="clipPath9605">
      <path
         d="M -9.7834204e-6,807.60896 H 1325.9999 V -9.7834204e-6 H -9.7834204e-6 Z"
         id="path9607"
         style="stroke-width:1.38994" />
    </clipPath>
    <clipPath
       clipPathUnits="userSpaceOnUse"
       id="clipPath9609">
      <path
         d="M -9.7834204e-6,807.60896 H 1325.9999 V -9.7834204e-6 H -9.7834204e-6 Z"
         id="path9611"
         style="stroke-width:1.38994" />
    </clipPath>
    <clipPath
       clipPathUnits="userSpaceOnUse"
       id="clipPath9613">
      <path
         d="M -9.7834204e-6,807.60896 H 1325.9999 V -9.7834204e-6 H -9.7834204e-6 Z"
         id="path9615"
         style="stroke-width:1.38994" />
    </clipPath>
    <clipPath
       clipPathUnits="userSpaceOnUse"
       id="clipPath9620">
      <path
         d="M 1594.0001,807.60896 H 268.0002 V -9.7834204e-6 h 1325.9999 z"
         id="path9622"
         style="stroke-width:1.38994" />
    </clipPath>
    <clipPath
       clipPathUnits="userSpaceOnUse"
       id="clipPath9624">
      <path
         d="M 1594.0001,807.60896 H 268.0002 V -9.7834204e-6 h 1325.9999 z"
         id="path9626"
         style="stroke-width:1.38994" />
    </clipPath>
    <clipPath
       clipPathUnits="userSpaceOnUse"
       id="clipPath9635">
      <path
         d="M 1954,807.60896 H 628.00015 V -9.7834204e-6 H 1954 Z"
         id="path9637"
         style="stroke-width:1.38994" />
    </clipPath>
    <clipPath
       clipPathUnits="userSpaceOnUse"
       id="clipPath9639">
      <path
         d="M 1954,807.60896 H 628.00015 V -9.7834204e-6 H 1954 Z"
         id="path9641"
         style="stroke-width:1.38994" />
    </clipPath>
    <clipPath
       clipPathUnits="userSpaceOnUse"
       id="clipPath9643">
      <path
         d="M 1954,807.60896 H 628.00015 V -9.7834204e-6 H 1954 Z"
         id="path9645"
         style="stroke-width:1.38994" />
    </clipPath>
    <clipPath
       clipPathUnits="userSpaceOnUse"
       id="clipPath9647">
      <path
         d="M 1954,807.60896 H 628.00015 V -9.7834204e-6 H 1954 Z"
         id="path9649"
         style="stroke-width:1.38994" />
    </clipPath>
    <clipPath
       clipPathUnits="userSpaceOnUse"
       id="clipPath9651">
      <path
         d="M 1954,807.60896 H 628.00015 V -9.7834204e-6 H 1954 Z"
         id="path9653"
         style="stroke-width:1.38994" />
    </clipPath>
    <clipPath
       clipPathUnits="userSpaceOnUse"
       id="clipPath9655">
      <path
         d="M 1954,807.60896 H 628.00015 V -9.7834204e-6 H 1954 Z"
         id="path9657"
         style="stroke-width:1.38994" />
    </clipPath>
  </defs>
  <g
     inkscape:label="Layer 1"
     inkscape:groupmode="layer"
     id="layer1"
     transform="translate(-64.308122,-213.30314)">
    <g
       id="g9700"
       transform="translate(-85.280051,46.15818)"
       inkscape:export-filename="g9700.svg"
       inkscape:export-xdpi="96"
       inkscape:export-ydpi="96">
      <text
         xml:space="preserve"
         style="font-variant:normal;font-weight:normal;font-size:2.60219px;font-family:Arial;-inkscape-font-specification:ArialMT;writing-mode:lr-tb;fill:#000000;fill-opacity:1;fill-rule:nonzero;stroke:none;stroke-width:0.100084"
         id="text7383"
         x="172.09502"
         y="179.83009"><tspan
           x="172.09502 173.54224 174.98946 176.29054 177.59164 179.03885 181.2065 182.65372"
           y="179.83009"
           sodipodi:role="line"
           id="tspan7381"
           style="stroke-width:0.100084">anscombe</tspan></text>
      <text
         xml:space="preserve"
         style="font-variant:normal;font-weight:normal;font-size:2.60219px;font-family:Arial;-inkscape-font-specification:ArialMT;writing-mode:lr-tb;fill:#000000;fill-opacity:1;fill-rule:nonzero;stroke:none;stroke-width:0.100084"
         id="text7387"
         x="172.09502"
         y="183.63332"><tspan
           x="172.09502 172.67314 174.12036 175.56757 177.01479 177.73776 178.31589 179.03885"
           y="183.63332"
           sodipodi:role="line"
           id="tspan7385"
           style="stroke-width:0.100084">identity</tspan></text>
      <text
         xml:space="preserve"
         style="font-variant:normal;font-weight:normal;font-size:2.60219px;font-family:Arial;-inkscape-font-specification:ArialMT;writing-mode:lr-tb;fill:#000000;fill-opacity:1;fill-rule:nonzero;stroke:none;stroke-width:0.100084"
         id="text7391"
         x="191.21112"
         y="182.4323"><tspan
           x="191.21112 192.80064 193.52362"
           y="182.4323"
           sodipodi:role="line"
           id="tspan7389"
           style="stroke-width:0.100084">ZIG</tspan></text>
      <text
         xml:space="preserve"
         style="font-variant:normal;font-weight:normal;font-size:2.60219px;font-family:Arial;-inkscape-font-specification:ArialMT;writing-mode:lr-tb;fill:#000000;fill-opacity:1;fill-rule:nonzero;stroke:none;stroke-width:0.100084"
         id="text7395"
         x="191.21112"
         y="178.42892"><tspan
           x="191.21112 192.94676 194.39398 194.97211 196.27319 197.5743 199.0215"
           y="178.42892"
           sodipodi:role="line"
           id="tspan7393"
           style="stroke-width:0.100084">Poisson</tspan></text>
      <path
         d="m 807,661 c -6e-5,0.65662 -0.0641,1.30688 -0.1922,1.95087 -0.12811,0.64398 -0.31781,1.26922 -0.56909,1.87585 -0.25128,0.60663 -0.55927,1.18292 -0.92407,1.72888 -0.36481,0.54596 -0.7793,1.05115 -1.2436,1.51544 -0.46429,0.46424 -0.96942,0.87879 -1.51538,1.2436 -0.54596,0.3648 -1.12225,0.67285 -1.72888,0.92413 -0.60663,0.25122 -1.23193,0.44092 -1.87591,0.56903 -0.64399,0.12811 -1.29431,0.19214 -1.95087,0.1922 -0.65668,-6e-5 -1.30701,-0.0641 -1.95099,-0.1922 -0.64398,-0.12811 -1.26929,-0.31781 -1.87591,-0.56903 -0.60663,-0.25128 -1.18287,-0.55933 -1.72883,-0.92413 -0.54595,-0.36481 -1.05108,-0.77936 -1.51538,-1.2436 -0.46429,-0.46429 -0.8789,-0.96948 -1.24371,-1.51544 -0.36481,-0.54596 -0.67279,-1.12225 -0.92407,-1.72888 -0.25128,-0.60663 -0.44092,-1.23187 -0.56903,-1.87585 C 787.06396,662.30688 786.99994,661.65662 787,661 c -6e-5,-0.65662 0.064,-1.30695 0.19208,-1.95093 0.12811,-0.64398 0.31775,-1.26935 0.56903,-1.87597 0.25128,-0.60663 0.55932,-1.18293 0.92413,-1.72889 0.36481,-0.54596 0.77936,-1.05108 1.24365,-1.51532 0.4643,-0.46429 0.96943,-0.87884 1.51538,-1.24365 0.54596,-0.36481 1.1222,-0.67279 1.72883,-0.92407 0.60662,-0.25128 1.23193,-0.44092 1.87597,-0.56903 C 795.69305,651.06403 796.34332,651 797,651 c 0.65656,0 1.30688,0.064 1.95087,0.19214 0.64398,0.12811 1.26934,0.31775 1.87597,0.56903 0.60663,0.25128 1.18293,0.55926 1.72889,0.92407 0.54595,0.36481 1.05102,0.77936 1.51531,1.24365 0.4643,0.46424 0.87885,0.96936 1.24366,1.51532 0.36474,0.54596 0.67273,1.12226 0.92401,1.72889 0.25128,0.60662 0.44098,1.23199 0.56909,1.87597 0.12811,0.64398 0.19214,1.29431 0.1922,1.95093 z"
         style="fill:#f14cc1;fill-opacity:1;fill-rule:nonzero;stroke:none"
         id="path7399"
         transform="matrix(-0.10008429,0,0,0.10008429,231.64518,113.27405)"
         clip-path="url(#clipPath9569)" />
      <path
         d="m 807,661 c -6e-5,0.65662 -0.0641,1.30688 -0.1922,1.95087 -0.12811,0.64398 -0.31781,1.26922 -0.56909,1.87585 -0.25128,0.60663 -0.55927,1.18292 -0.92407,1.72888 -0.36481,0.54596 -0.7793,1.05115 -1.2436,1.51544 -0.46429,0.46424 -0.96942,0.87879 -1.51538,1.2436 -0.54596,0.3648 -1.12225,0.67285 -1.72888,0.92413 -0.60663,0.25122 -1.23193,0.44092 -1.87591,0.56903 -0.64399,0.12811 -1.29431,0.19214 -1.95087,0.1922 -0.65668,-6e-5 -1.30701,-0.0641 -1.95099,-0.1922 -0.64398,-0.12811 -1.26929,-0.31781 -1.87591,-0.56903 -0.60663,-0.25128 -1.18287,-0.55933 -1.72883,-0.92413 -0.54595,-0.36481 -1.05108,-0.77936 -1.51538,-1.2436 -0.46429,-0.46429 -0.8789,-0.96948 -1.24371,-1.51544 -0.36481,-0.54596 -0.67279,-1.12225 -0.92407,-1.72888 -0.25128,-0.60663 -0.44092,-1.23187 -0.56903,-1.87585 C 787.06396,662.30688 786.99994,661.65662 787,661 c -6e-5,-0.65662 0.064,-1.30695 0.19208,-1.95093 0.12811,-0.64398 0.31775,-1.26935 0.56903,-1.87597 0.25128,-0.60663 0.55932,-1.18293 0.92413,-1.72889 0.36481,-0.54596 0.77936,-1.05108 1.24365,-1.51532 0.4643,-0.46429 0.96943,-0.87884 1.51538,-1.24365 0.54596,-0.36481 1.1222,-0.67279 1.72883,-0.92407 0.60662,-0.25128 1.23193,-0.44092 1.87597,-0.56903 C 795.69305,651.06403 796.34332,651 797,651 c 0.65656,0 1.30688,0.064 1.95087,0.19214 0.64398,0.12811 1.26934,0.31775 1.87597,0.56903 0.60663,0.25128 1.18293,0.55926 1.72889,0.92407 0.54595,0.36481 1.05102,0.77936 1.51531,1.24365 0.4643,0.46424 0.87885,0.96936 1.24366,1.51532 0.36474,0.54596 0.67273,1.12226 0.92401,1.72889 0.25128,0.60662 0.44098,1.23199 0.56909,1.87597 0.12811,0.64398 0.19214,1.29431 0.1922,1.95093 z"
         style="fill:none;stroke:#000000;stroke-width:1;stroke-linecap:butt;stroke-linejoin:miter;stroke-miterlimit:10;stroke-dasharray:none;stroke-opacity:1"
         id="path7401"
         transform="matrix(-0.10008429,0,0,0.10008429,231.64518,113.27405)"
         clip-path="url(#clipPath9565)" />
      <path
         d="m 987,618 c -6e-5,0.65656 -0.0642,1.30682 -0.19226,1.95081 -0.12811,0.64398 -0.31781,1.26928 -0.56909,1.87591 -0.25128,0.60663 -0.55933,1.18292 -0.92407,1.72888 -0.36481,0.54596 -0.7793,1.05109 -1.2436,1.51538 -0.46429,0.4643 -0.96948,0.87879 -1.51544,1.2436 -0.54596,0.3648 -1.12225,0.67285 -1.72888,0.92413 -0.60663,0.25128 -1.23193,0.44098 -1.87592,0.56909 -0.64398,0.12811 -1.29418,0.19214 -1.95074,0.1922 -0.65668,-6e-5 -1.30701,-0.0641 -1.95099,-0.1922 -0.64404,-0.12811 -1.26935,-0.31781 -1.87598,-0.56909 -0.60662,-0.25128 -1.18286,-0.55933 -1.72882,-0.92413 -0.54596,-0.36481 -1.05108,-0.7793 -1.51538,-1.2436 -0.46429,-0.46429 -0.87884,-0.96948 -1.24371,-1.51544 -0.36475,-0.54596 -0.67273,-1.12219 -0.92401,-1.72882 -0.25128,-0.60663 -0.44098,-1.23193 -0.56909,-1.87591 C 967.0639,619.30682 966.99994,618.65656 967,618 c -6e-5,-0.65668 0.0639,-1.30701 0.19202,-1.95099 0.12811,-0.64398 0.31781,-1.26929 0.56909,-1.87591 0.25128,-0.60663 0.55926,-1.18287 0.92401,-1.72883 0.36487,-0.54595 0.77942,-1.05108 1.24371,-1.51538 0.4643,-0.46429 0.96936,-0.87878 1.51532,-1.24359 0.54596,-0.3648 1.12226,-0.67285 1.72888,-0.92413 0.60663,-0.25128 1.23194,-0.44098 1.87598,-0.56909 C 975.69299,608.06403 976.34332,608 977,608 c 0.65656,0 1.30676,0.064 1.95074,0.19208 0.64399,0.12811 1.26929,0.31781 1.87592,0.56909 0.60663,0.25128 1.18292,0.55933 1.72888,0.92413 0.54596,0.36481 1.05115,0.7793 1.51544,1.24359 0.4643,0.4643 0.87879,0.96943 1.24353,1.51538 0.36481,0.54596 0.67286,1.1222 0.92414,1.72883 0.25128,0.60662 0.44098,1.23193 0.56909,1.87591 0.12811,0.64398 0.1922,1.29431 0.19226,1.95099 z"
         style="fill:#00d7ff;fill-opacity:1;fill-rule:nonzero;stroke:none"
         id="path7405"
         transform="matrix(-0.10008429,0,0,0.10008429,267.67552,113.27405)"
         clip-path="url(#clipPath9655)" />
      <path
         d="m 987,618 c -6e-5,0.65656 -0.0642,1.30682 -0.19226,1.95081 -0.12811,0.64398 -0.31781,1.26928 -0.56909,1.87591 -0.25128,0.60663 -0.55933,1.18292 -0.92407,1.72888 -0.36481,0.54596 -0.7793,1.05109 -1.2436,1.51538 -0.46429,0.4643 -0.96948,0.87879 -1.51544,1.2436 -0.54596,0.3648 -1.12225,0.67285 -1.72888,0.92413 -0.60663,0.25128 -1.23193,0.44098 -1.87592,0.56909 -0.64398,0.12811 -1.29418,0.19214 -1.95074,0.1922 -0.65668,-6e-5 -1.30701,-0.0641 -1.95099,-0.1922 -0.64404,-0.12811 -1.26935,-0.31781 -1.87598,-0.56909 -0.60662,-0.25128 -1.18286,-0.55933 -1.72882,-0.92413 -0.54596,-0.36481 -1.05108,-0.7793 -1.51538,-1.2436 -0.46429,-0.46429 -0.87884,-0.96948 -1.24371,-1.51544 -0.36475,-0.54596 -0.67273,-1.12219 -0.92401,-1.72882 -0.25128,-0.60663 -0.44098,-1.23193 -0.56909,-1.87591 C 967.0639,619.30682 966.99994,618.65656 967,618 c -6e-5,-0.65668 0.0639,-1.30701 0.19202,-1.95099 0.12811,-0.64398 0.31781,-1.26929 0.56909,-1.87591 0.25128,-0.60663 0.55926,-1.18287 0.92401,-1.72883 0.36487,-0.54595 0.77942,-1.05108 1.24371,-1.51538 0.4643,-0.46429 0.96936,-0.87878 1.51532,-1.24359 0.54596,-0.3648 1.12226,-0.67285 1.72888,-0.92413 0.60663,-0.25128 1.23194,-0.44098 1.87598,-0.56909 C 975.69299,608.06403 976.34332,608 977,608 c 0.65656,0 1.30676,0.064 1.95074,0.19208 0.64399,0.12811 1.26929,0.31781 1.87592,0.56909 0.60663,0.25128 1.18292,0.55933 1.72888,0.92413 0.54596,0.36481 1.05115,0.7793 1.51544,1.24359 0.4643,0.4643 0.87879,0.96943 1.24353,1.51538 0.36481,0.54596 0.67286,1.1222 0.92414,1.72883 0.25128,0.60662 0.44098,1.23193 0.56909,1.87591 0.12811,0.64398 0.1922,1.29431 0.19226,1.95099 z"
         style="fill:none;stroke:#000000;stroke-width:1;stroke-linecap:butt;stroke-linejoin:miter;stroke-miterlimit:10;stroke-dasharray:none;stroke-opacity:1"
         id="path7407"
         transform="matrix(-0.10008429,0,0,0.10008429,267.67552,113.27405)"
         clip-path="url(#clipPath9651)" />
      <path
         d="m 987,656 c -6e-5,0.65656 -0.0642,1.30688 -0.19226,1.95087 -0.12811,0.64398 -0.31781,1.26922 -0.56909,1.87585 -0.25128,0.60663 -0.55933,1.18292 -0.92407,1.72888 -0.36481,0.54596 -0.7793,1.05115 -1.2436,1.51544 -0.46429,0.46424 -0.96948,0.87879 -1.51544,1.2436 -0.54596,0.3648 -1.12225,0.67279 -1.72888,0.92407 -0.60663,0.25128 -1.23193,0.44098 -1.87592,0.56909 -0.64398,0.12811 -1.29418,0.19214 -1.95074,0.1922 -0.65668,-6e-5 -1.30701,-0.0641 -1.95099,-0.1922 -0.64404,-0.12811 -1.26935,-0.31781 -1.87598,-0.56909 -0.60662,-0.25128 -1.18286,-0.55927 -1.72882,-0.92407 -0.54596,-0.36481 -1.05108,-0.77936 -1.51538,-1.2436 -0.46429,-0.46429 -0.87884,-0.96948 -1.24371,-1.51544 -0.36475,-0.54596 -0.67273,-1.12225 -0.92401,-1.72888 -0.25128,-0.60663 -0.44098,-1.23187 -0.56909,-1.87585 C 967.0639,657.30688 966.99994,656.65656 967,656 c -6e-5,-0.65662 0.0639,-1.30695 0.19202,-1.95093 0.12811,-0.64398 0.31781,-1.26935 0.56909,-1.87597 0.25128,-0.60663 0.55926,-1.18293 0.92401,-1.72889 0.36487,-0.54596 0.77942,-1.05102 1.24371,-1.51532 0.4643,-0.46429 0.96936,-0.87884 1.51532,-1.24365 0.54596,-0.36481 1.12226,-0.67279 1.72888,-0.92407 0.60663,-0.25128 1.23194,-0.44098 1.87598,-0.56903 C 975.69299,646.06403 976.34332,646 977,646 c 0.65656,0 1.30676,0.064 1.95074,0.19214 0.64399,0.12805 1.26929,0.31775 1.87592,0.56903 0.60663,0.25128 1.18292,0.55926 1.72888,0.92407 0.54596,0.36481 1.05115,0.77936 1.51544,1.24365 0.4643,0.4643 0.87879,0.96936 1.24353,1.51532 0.36481,0.54596 0.67286,1.12226 0.92414,1.72889 0.25128,0.60662 0.44098,1.23199 0.56909,1.87597 0.12811,0.64398 0.1922,1.29431 0.19226,1.95093 z"
         style="fill:#ffc400;fill-opacity:1;fill-rule:nonzero;stroke:none"
         id="path7409"
         transform="matrix(-0.10008429,0,0,0.10008429,267.67552,113.27405)"
         clip-path="url(#clipPath9647)" />
      <path
         d="m 987,656 c -6e-5,0.65656 -0.0642,1.30688 -0.19226,1.95087 -0.12811,0.64398 -0.31781,1.26922 -0.56909,1.87585 -0.25128,0.60663 -0.55933,1.18292 -0.92407,1.72888 -0.36481,0.54596 -0.7793,1.05115 -1.2436,1.51544 -0.46429,0.46424 -0.96948,0.87879 -1.51544,1.2436 -0.54596,0.3648 -1.12225,0.67279 -1.72888,0.92407 -0.60663,0.25128 -1.23193,0.44098 -1.87592,0.56909 -0.64398,0.12811 -1.29418,0.19214 -1.95074,0.1922 -0.65668,-6e-5 -1.30701,-0.0641 -1.95099,-0.1922 -0.64404,-0.12811 -1.26935,-0.31781 -1.87598,-0.56909 -0.60662,-0.25128 -1.18286,-0.55927 -1.72882,-0.92407 -0.54596,-0.36481 -1.05108,-0.77936 -1.51538,-1.2436 -0.46429,-0.46429 -0.87884,-0.96948 -1.24371,-1.51544 -0.36475,-0.54596 -0.67273,-1.12225 -0.92401,-1.72888 -0.25128,-0.60663 -0.44098,-1.23187 -0.56909,-1.87585 C 967.0639,657.30688 966.99994,656.65656 967,656 c -6e-5,-0.65662 0.0639,-1.30695 0.19202,-1.95093 0.12811,-0.64398 0.31781,-1.26935 0.56909,-1.87597 0.25128,-0.60663 0.55926,-1.18293 0.92401,-1.72889 0.36487,-0.54596 0.77942,-1.05102 1.24371,-1.51532 0.4643,-0.46429 0.96936,-0.87884 1.51532,-1.24365 0.54596,-0.36481 1.12226,-0.67279 1.72888,-0.92407 0.60663,-0.25128 1.23194,-0.44098 1.87598,-0.56903 C 975.69299,646.06403 976.34332,646 977,646 c 0.65656,0 1.30676,0.064 1.95074,0.19214 0.64399,0.12805 1.26929,0.31775 1.87592,0.56903 0.60663,0.25128 1.18292,0.55926 1.72888,0.92407 0.54596,0.36481 1.05115,0.77936 1.51544,1.24365 0.4643,0.4643 0.87879,0.96936 1.24353,1.51532 0.36481,0.54596 0.67286,1.12226 0.92414,1.72889 0.25128,0.60662 0.44098,1.23199 0.56909,1.87597 0.12811,0.64398 0.1922,1.29431 0.19226,1.95093 z"
         style="fill:none;stroke:#000000;stroke-width:1;stroke-linecap:butt;stroke-linejoin:miter;stroke-miterlimit:10;stroke-dasharray:none;stroke-opacity:1"
         id="path7411"
         transform="matrix(-0.10008429,0,0,0.10008429,267.67552,113.27405)"
         clip-path="url(#clipPath9643)" />
      <path
         d="m 987,694 c -6e-5,0.65656 -0.0642,1.30688 -0.19226,1.95087 -0.12811,0.64398 -0.31781,1.26928 -0.56909,1.87591 -0.25128,0.60663 -0.55933,1.18292 -0.92407,1.72888 -0.36481,0.54596 -0.7793,1.05109 -1.2436,1.51538 -0.46429,0.4643 -0.96948,0.87879 -1.51544,1.2436 -0.54596,0.3648 -1.12225,0.67285 -1.72888,0.92413 -0.60663,0.25128 -1.23193,0.44092 -1.87592,0.56903 -0.64398,0.12811 -1.29418,0.19214 -1.95074,0.1922 -0.65668,-6e-5 -1.30701,-0.0641 -1.95099,-0.1922 -0.64404,-0.12811 -1.26935,-0.31775 -1.87598,-0.56903 -0.60662,-0.25128 -1.18286,-0.55933 -1.72882,-0.92413 -0.54596,-0.36481 -1.05108,-0.7793 -1.51538,-1.2436 -0.46429,-0.46429 -0.87884,-0.96942 -1.24371,-1.51544 -0.36475,-0.54596 -0.67273,-1.12219 -0.92401,-1.72882 -0.25128,-0.60663 -0.44098,-1.23193 -0.56909,-1.87591 C 967.0639,695.30688 966.99994,694.65656 967,694 c -6e-5,-0.65668 0.0639,-1.30701 0.19202,-1.95099 0.12811,-0.64404 0.31781,-1.26935 0.56909,-1.87598 0.25128,-0.60662 0.55926,-1.18286 0.92401,-1.72882 0.36487,-0.54596 0.77942,-1.05102 1.24371,-1.51532 0.4643,-0.46429 0.96936,-0.87884 1.51532,-1.24365 0.54596,-0.36481 1.12226,-0.67285 1.72888,-0.92407 0.60663,-0.25122 1.23194,-0.44092 1.87598,-0.56903 C 975.69299,684.06403 976.34332,684 977,684 c 0.65656,0 1.30676,0.064 1.95074,0.19214 0.64399,0.12811 1.26929,0.31781 1.87592,0.56903 0.60663,0.25122 1.18292,0.55926 1.72888,0.92407 0.54596,0.36481 1.05115,0.77936 1.51544,1.24365 0.4643,0.4643 0.87879,0.96936 1.24353,1.51532 0.36481,0.54596 0.67286,1.1222 0.92414,1.72882 0.25128,0.60663 0.44098,1.23194 0.56909,1.87598 0.12811,0.64398 0.1922,1.29431 0.19226,1.95099 z"
         style="fill:#9f4800;fill-opacity:1;fill-rule:nonzero;stroke:none"
         id="path7413"
         transform="matrix(-0.10008429,0,0,0.10008429,267.67552,113.27405)"
         clip-path="url(#clipPath9639)" />
      <path
         d="m 987,694 c -6e-5,0.65656 -0.0642,1.30688 -0.19226,1.95087 -0.12811,0.64398 -0.31781,1.26928 -0.56909,1.87591 -0.25128,0.60663 -0.55933,1.18292 -0.92407,1.72888 -0.36481,0.54596 -0.7793,1.05109 -1.2436,1.51538 -0.46429,0.4643 -0.96948,0.87879 -1.51544,1.2436 -0.54596,0.3648 -1.12225,0.67285 -1.72888,0.92413 -0.60663,0.25128 -1.23193,0.44092 -1.87592,0.56903 -0.64398,0.12811 -1.29418,0.19214 -1.95074,0.1922 -0.65668,-6e-5 -1.30701,-0.0641 -1.95099,-0.1922 -0.64404,-0.12811 -1.26935,-0.31775 -1.87598,-0.56903 -0.60662,-0.25128 -1.18286,-0.55933 -1.72882,-0.92413 -0.54596,-0.36481 -1.05108,-0.7793 -1.51538,-1.2436 -0.46429,-0.46429 -0.87884,-0.96942 -1.24371,-1.51544 -0.36475,-0.54596 -0.67273,-1.12219 -0.92401,-1.72882 -0.25128,-0.60663 -0.44098,-1.23193 -0.56909,-1.87591 C 967.0639,695.30688 966.99994,694.65656 967,694 c -6e-5,-0.65668 0.0639,-1.30701 0.19202,-1.95099 0.12811,-0.64404 0.31781,-1.26935 0.56909,-1.87598 0.25128,-0.60662 0.55926,-1.18286 0.92401,-1.72882 0.36487,-0.54596 0.77942,-1.05102 1.24371,-1.51532 0.4643,-0.46429 0.96936,-0.87884 1.51532,-1.24365 0.54596,-0.36481 1.12226,-0.67285 1.72888,-0.92407 0.60663,-0.25122 1.23194,-0.44092 1.87598,-0.56903 C 975.69299,684.06403 976.34332,684 977,684 c 0.65656,0 1.30676,0.064 1.95074,0.19214 0.64399,0.12811 1.26929,0.31781 1.87592,0.56903 0.60663,0.25122 1.18292,0.55926 1.72888,0.92407 0.54596,0.36481 1.05115,0.77936 1.51544,1.24365 0.4643,0.4643 0.87879,0.96936 1.24353,1.51532 0.36481,0.54596 0.67286,1.1222 0.92414,1.72882 0.25128,0.60663 0.44098,1.23194 0.56909,1.87598 0.12811,0.64398 0.1922,1.29431 0.19226,1.95099 z"
         style="fill:none;stroke:#000000;stroke-width:1;stroke-linecap:butt;stroke-linejoin:miter;stroke-miterlimit:10;stroke-dasharray:none;stroke-opacity:1"
         id="path7415"
         transform="matrix(-0.10008429,0,0,0.10008429,267.67552,113.27405)"
         clip-path="url(#clipPath9635)" />
      <path
         d="m 807,618 c -6e-5,0.65656 -0.0641,1.30682 -0.1922,1.95081 -0.12811,0.64398 -0.31781,1.26928 -0.56909,1.87591 -0.25128,0.60663 -0.55927,1.18292 -0.92407,1.72888 -0.36481,0.54596 -0.7793,1.05109 -1.2436,1.51538 -0.46429,0.4643 -0.96942,0.87879 -1.51538,1.2436 -0.54596,0.3648 -1.12225,0.67285 -1.72888,0.92413 -0.60663,0.25128 -1.23193,0.44098 -1.87591,0.56909 -0.64399,0.12811 -1.29431,0.19214 -1.95087,0.1922 -0.65668,-6e-5 -1.30701,-0.0641 -1.95099,-0.1922 -0.64398,-0.12811 -1.26929,-0.31781 -1.87591,-0.56909 -0.60663,-0.25128 -1.18287,-0.55933 -1.72883,-0.92413 -0.54595,-0.36481 -1.05108,-0.7793 -1.51538,-1.2436 -0.46429,-0.46429 -0.8789,-0.96948 -1.24371,-1.51544 -0.36481,-0.54596 -0.67279,-1.12219 -0.92407,-1.72882 -0.25128,-0.60663 -0.44092,-1.23193 -0.56903,-1.87591 C 787.06396,619.30682 786.99994,618.65656 787,618 c -6e-5,-0.65668 0.064,-1.30701 0.19208,-1.95099 0.12811,-0.64398 0.31775,-1.26929 0.56903,-1.87591 0.25128,-0.60663 0.55932,-1.18287 0.92413,-1.72883 0.36481,-0.54595 0.77936,-1.05108 1.24365,-1.51538 0.4643,-0.46429 0.96943,-0.87878 1.51538,-1.24359 0.54596,-0.3648 1.1222,-0.67285 1.72883,-0.92413 0.60662,-0.25128 1.23193,-0.44098 1.87597,-0.56909 C 795.69305,608.06403 796.34332,608 797,608 c 0.65656,0 1.30688,0.064 1.95087,0.19208 0.64398,0.12811 1.26934,0.31781 1.87597,0.56909 0.60663,0.25128 1.18293,0.55933 1.72889,0.92413 0.54595,0.36481 1.05102,0.7793 1.51531,1.24359 0.4643,0.4643 0.87885,0.96943 1.24366,1.51538 0.36474,0.54596 0.67273,1.1222 0.92401,1.72883 0.25128,0.60662 0.44098,1.23193 0.56909,1.87591 0.12811,0.64398 0.19214,1.29431 0.1922,1.95099 z"
         style="fill:#1ac938;fill-opacity:1;fill-rule:nonzero;stroke:none"
         id="path7419"
         transform="matrix(-0.10008429,0,0,0.10008429,231.64518,113.27405)"
         clip-path="url(#clipPath9624)" />
      <path
         d="m 807,618 c -6e-5,0.65656 -0.0641,1.30682 -0.1922,1.95081 -0.12811,0.64398 -0.31781,1.26928 -0.56909,1.87591 -0.25128,0.60663 -0.55927,1.18292 -0.92407,1.72888 -0.36481,0.54596 -0.7793,1.05109 -1.2436,1.51538 -0.46429,0.4643 -0.96942,0.87879 -1.51538,1.2436 -0.54596,0.3648 -1.12225,0.67285 -1.72888,0.92413 -0.60663,0.25128 -1.23193,0.44098 -1.87591,0.56909 -0.64399,0.12811 -1.29431,0.19214 -1.95087,0.1922 -0.65668,-6e-5 -1.30701,-0.0641 -1.95099,-0.1922 -0.64398,-0.12811 -1.26929,-0.31781 -1.87591,-0.56909 -0.60663,-0.25128 -1.18287,-0.55933 -1.72883,-0.92413 -0.54595,-0.36481 -1.05108,-0.7793 -1.51538,-1.2436 -0.46429,-0.46429 -0.8789,-0.96948 -1.24371,-1.51544 -0.36481,-0.54596 -0.67279,-1.12219 -0.92407,-1.72882 -0.25128,-0.60663 -0.44092,-1.23193 -0.56903,-1.87591 C 787.06396,619.30682 786.99994,618.65656 787,618 c -6e-5,-0.65668 0.064,-1.30701 0.19208,-1.95099 0.12811,-0.64398 0.31775,-1.26929 0.56903,-1.87591 0.25128,-0.60663 0.55932,-1.18287 0.92413,-1.72883 0.36481,-0.54595 0.77936,-1.05108 1.24365,-1.51538 0.4643,-0.46429 0.96943,-0.87878 1.51538,-1.24359 0.54596,-0.3648 1.1222,-0.67285 1.72883,-0.92413 0.60662,-0.25128 1.23193,-0.44098 1.87597,-0.56909 C 795.69305,608.06403 796.34332,608 797,608 c 0.65656,0 1.30688,0.064 1.95087,0.19208 0.64398,0.12811 1.26934,0.31781 1.87597,0.56909 0.60663,0.25128 1.18293,0.55933 1.72889,0.92413 0.54595,0.36481 1.05102,0.7793 1.51531,1.24359 0.4643,0.4643 0.87885,0.96943 1.24366,1.51538 0.36474,0.54596 0.67273,1.1222 0.92401,1.72883 0.25128,0.60662 0.44098,1.23193 0.56909,1.87591 0.12811,0.64398 0.19214,1.29431 0.1922,1.95099 z"
         style="fill:none;stroke:#000000;stroke-width:1;stroke-linecap:butt;stroke-linejoin:miter;stroke-miterlimit:10;stroke-dasharray:none;stroke-opacity:1"
         id="path7421"
         transform="matrix(-0.10008429,0,0,0.10008429,231.64518,113.27405)"
         clip-path="url(#clipPath9620)" />
      <path
         d="m 1154,681 h 30"
         style="fill:none;stroke:#023eff;stroke-width:1;stroke-linecap:butt;stroke-linejoin:miter;stroke-miterlimit:10;stroke-dasharray:none;stroke-opacity:1"
         id="path7425"
         transform="matrix(0.10008429,0,0,0.10008429,72.11081,113.27405)"
         clip-path="url(#clipPath9613)" />
      <path
         d="m 1154,642 h 12"
         style="fill:none;stroke:#ff7c00;stroke-width:1;stroke-linecap:butt;stroke-linejoin:miter;stroke-miterlimit:10;stroke-dasharray:none;stroke-opacity:1"
         id="path7427"
         transform="matrix(0.10008429,0,0,0.10008429,72.11081,113.27405)"
         clip-path="url(#clipPath9609)" />
      <path
         d="m 1172,642 h 12"
         style="fill:none;stroke:#ff7c00;stroke-width:1;stroke-linecap:butt;stroke-linejoin:miter;stroke-miterlimit:10;stroke-dasharray:none;stroke-opacity:1"
         id="path7429"
         transform="matrix(0.10008429,0,0,0.10008429,72.11081,113.27405)"
         clip-path="url(#clipPath9605)" />
      <text
         xml:space="preserve"
         style="font-variant:normal;font-weight:normal;font-size:2.60219px;font-family:Arial;-inkscape-font-specification:ArialMT;writing-mode:lr-tb;fill:#000000;fill-opacity:1;fill-rule:nonzero;stroke:none;stroke-width:0.100084"
         id="text7433"
         x="154.07983"
         y="176.0269"><tspan
           x="154.07983 155.66936 156.39233 157.98186 159.4278"
           y="176.0269"
           sodipodi:role="line"
           id="tspan7431"
           style="stroke-width:0.100084">ZIFFA</tspan></text>
      <text
         xml:space="preserve"
         style="font-variant:normal;font-weight:normal;font-size:2.60219px;font-family:Arial;-inkscape-font-specification:ArialMT;writing-mode:lr-tb;fill:#000000;fill-opacity:1;fill-rule:nonzero;stroke:none;stroke-width:0.100084"
         id="text7437"
         x="154.07983"
         y="180.33052"><tspan
           x="154.07983 155.66936 156.24748 157.6947 159.57391 161.01987"
           y="180.33052"
           sodipodi:role="line"
           id="tspan7435"
           style="stroke-width:0.100084">FlowFA</tspan></text>
      <text
         xml:space="preserve"
         style="font-variant:normal;font-weight:normal;font-size:2.60219px;font-family:Arial;-inkscape-font-specification:ArialMT;writing-mode:lr-tb;fill:#000000;fill-opacity:1;fill-rule:nonzero;stroke:none;stroke-width:0.100084"
         id="text7441"
         x="172.09502"
         y="176.0269"><tspan
           x="172.09502 173.39612 174.84334 175.70988"
           y="176.0269"
           sodipodi:role="line"
           id="tspan7439"
           style="stroke-width:0.100084">sqrt</tspan></text>
      <text
         xml:space="preserve"
         style="font-variant:normal;font-weight:normal;font-size:2.30194px;font-family:Arial;-inkscape-font-specification:ArialMT;writing-mode:lr-tb;fill:#000000;fill-opacity:1;fill-rule:nonzero;stroke:none;stroke-width:0.100084"
         id="text7445"
         x="168.49042"
         y="171.42302"><tspan
           x="168.49042 169.12997 169.89653 171.17676 172.45699 173.60796 174.24751 175.52774 176.29431 178.21184 179.49207 180.13162 180.64304 181.92326"
           y="171.42302"
           sodipodi:role="line"
           id="tspan7443"
           style="stroke-width:0.100084">transformation</tspan></text>
      <text
         xml:space="preserve"
         style="font-variant:normal;font-weight:normal;font-size:2.30194px;font-family:Arial;-inkscape-font-specification:ArialMT;writing-mode:lr-tb;fill:#000000;fill-opacity:1;fill-rule:nonzero;stroke:none;stroke-width:0.100084"
         id="text7449"
         x="169.32237"
         y="168.82083"><tspan
           x="169.32237 170.60147 172.13686 172.7764 174.43878 174.95021 175.58975 176.86998 177.50954 178.14909 178.66051 179.81148 181.09171"
           y="168.82083"
           sodipodi:role="line"
           id="tspan7447"
           style="stroke-width:0.100084">FA with fixed</tspan></text>
      <text
         xml:space="preserve"
         style="font-variant:normal;font-weight:normal;font-size:2.30194px;font-family:Arial;-inkscape-font-specification:ArialMT;writing-mode:lr-tb;fill:#000000;fill-opacity:1;fill-rule:nonzero;stroke:none;stroke-width:0.100084"
         id="text7453"
         x="149.97482"
         y="171.42302"><tspan
           x="149.97482 150.61438 151.38094 152.66116 153.94139 155.09236 155.73192 157.01215 157.7787 159.69624 160.97647 161.61601 162.12744 163.40767"
           y="171.42302"
           sodipodi:role="line"
           id="tspan7451"
           style="stroke-width:0.100084">transformation</tspan></text>
      <text
         xml:space="preserve"
         style="font-variant:normal;font-weight:normal;font-size:2.30194px;font-family:Arial;-inkscape-font-specification:ArialMT;writing-mode:lr-tb;fill:#000000;fill-opacity:1;fill-rule:nonzero;stroke:none;stroke-width:0.100084"
         id="text7457"
         x="149.39934"
         y="168.82083"><tspan
           x="149.39934 150.67845 152.21382 152.85338 154.51576 155.02718 155.66673 156.94696 157.5865 158.09793 159.37816 160.65839 161.42494 162.70517 163.9854"
           y="168.82083"
           sodipodi:role="line"
           id="tspan7455"
           style="stroke-width:0.100084">FA with learned</tspan></text>
      <text
         xml:space="preserve"
         style="font-variant:normal;font-weight:normal;font-size:2.30194px;font-family:Arial;-inkscape-font-specification:ArialMT;writing-mode:lr-tb;fill:#000000;fill-opacity:1;fill-rule:nonzero;stroke:none;stroke-width:0.100084"
         id="text7461"
         x="187.68628"
         y="168.82083"><tspan
           x="187.68628 189.60381 190.88405 192.16428 193.4445 193.95592 195.10689 195.74644 197.40883 197.92024 198.5598"
           y="168.82083"
           sodipodi:role="line"
           id="tspan7459"
           style="stroke-width:0.100084">Models with</tspan></text>
      <text
         xml:space="preserve"
         style="font-variant:normal;font-weight:normal;font-size:2.30194px;font-family:Arial;-inkscape-font-specification:ArialMT;writing-mode:lr-tb;fill:#000000;fill-opacity:1;fill-rule:nonzero;stroke:none;stroke-width:0.100084"
         id="text7465"
         x="186.53061"
         y="171.52312"><tspan
           x="186.53061 187.04202 188.32225 189.60248 190.88271 192.16295 193.44318 194.7234 196.00363 197.28386 198.56409 199.71506"
           y="171.52312"
           sodipodi:role="line"
           id="tspan7463"
           style="stroke-width:0.100084">independence</tspan></text>
      <text
         xml:space="preserve"
         style="font-variant:normal;font-weight:normal;font-size:2.30194px;font-family:Arial;-inkscape-font-specification:ArialMT;writing-mode:lr-tb;fill:#000000;fill-opacity:1;fill-rule:nonzero;stroke:none;stroke-width:0.100084"
         id="text7469"
         x="187.87706"
         y="174.02521"><tspan
           x="187.87706 189.15729 190.30826 191.45923 192.73946 194.65698 195.93721 196.57677 197.08818 198.36842"
           y="174.02521"
           sodipodi:role="line"
           id="tspan7467"
           style="stroke-width:0.100084">assumption</tspan></text>
    </g>
  </g>
</svg>
