<svg width="512.9149414062499px" height="110.01497802734374px" xmlns="http://www.w3.org/2000/svg" viewBox="-6.4574707031249545 19.992510986328128 512.9149414062499 110.01497802734374" style="background: rgba(0, 0, 0, 0);" preserveAspectRatio="xMidYMid"><defs><filter id="editing-hole" x="-100%" y="-100%" width="300%" height="300%"><feFlood flood-color="#000" result="black"></feFlood><feMorphology operator="dilate" radius="2" in="SourceGraphic" result="erode"></feMorphology><feGaussianBlur in="erode" stdDeviation="4" result="blur"></feGaussianBlur><feOffset in="blur" dx="2" dy="2" result="offset"></feOffset><feComposite operator="atop" in="offset" in2="black" result="merge"></feComposite><feComposite operator="in" in="merge" in2="SourceGraphic" result="inner-shadow"></feComposite></filter></defs><g filter="url(#editing-hole)"><g transform="translate(68.41500616073608, 94.94312477111816)"><path d="M16.80-14.78L25.28-14.78L25.28-14.78Q25.33-14.57 25.33-14.24L25.33-14.24L25.33-14.24Q25.33-13.90 25.16-13.52L25.16-13.52L25.16-13.52Q23.69-13.27 23.10-12.89L23.10-12.89L23.10-12.89Q22.51-12.52 22.51-11.51L22.51-11.51L22.51-2.06L20.96-2.06L20.16-3.57L20.16-3.57Q17.14-1.55 13.65-1.55L13.65-1.55L13.65-1.55Q8.95-1.55 5.63-5.06L5.63-5.06L5.63-5.06Q2.31-8.57 2.31-14.60L2.31-14.60L2.31-14.60Q2.31-20.62 6.17-24.44L6.17-24.44L6.17-24.44Q10.04-28.27 15.54-28.27L15.54-28.27L15.54-28.27Q19.19-28.27 22.47-27.01L22.47-27.01L22.47-27.01Q22.39-24.40 21.80-21.76L21.80-21.76L21.80-21.76Q21.13-21.76 20.87-21.80L20.87-21.80L20.87-21.80Q20.75-23.98 19.28-25.16L19.28-25.16L19.28-25.16Q17.81-26.33 15.58-26.33L15.58-26.33L15.58-26.33Q10.92-26.33 8.32-23.23L8.32-23.23L8.32-23.23Q5.71-20.12 5.71-14.76L5.71-14.76L5.71-14.76Q5.71-9.41 8.09-6.51L8.09-6.51L8.09-6.51Q10.46-3.61 14.24-3.61L14.24-3.61L14.24-3.61Q17.14-3.61 19.70-5.04L19.70-5.04L19.70-12.85L19.70-12.85Q18.35-13.40 16.67-13.52L16.67-13.52L16.67-13.52Q16.67-14.28 16.80-14.78L16.80-14.78ZM33.31-16.17L33.31-16.17L33.31-15.88L33.31-15.88Q34.31-18.48 36.33-20.08L36.33-20.08L36.33-20.08Q38.35-21.67 40.66-21.67L40.66-21.67L40.66-21.67Q40.87-21.17 40.87-20.43L40.87-20.43L40.87-20.43Q40.87-19.70 40.57-18.69L40.57-18.69L40.57-18.69Q37.09-18.69 34.86-16.38L34.86-16.38L34.86-16.38Q33.60-14.99 33.31-12.94L33.31-12.94L33.31-4.20L33.31-4.20Q35.20-3.44 37.72-3.32L37.72-3.32L37.72-3.32Q37.72-2.52 37.55-2.06L37.55-2.06L27.43-2.06L27.43-2.06Q27.38-2.56 27.47-3.32L27.47-3.32L27.47-3.32Q29.06-3.53 29.67-3.95L29.67-3.95L29.67-3.95Q30.28-4.37 30.28-5.42L30.28-5.42L30.28-18.73L30.28-18.73Q29.06-18.77 28.39-18.77L28.39-18.77L28.39-18.77Q27.72-18.77 27.34-18.77L27.34-18.77L27.34-18.77Q27.34-19.28 27.51-19.87L27.51-19.87L27.51-19.87Q30.28-20.96 32.97-21.42L32.97-21.42L32.97-21.42Q33.31-19.28 33.31-16.17ZM46.03-7.06L46.03-7.06L46.03-7.06Q46.03-5.50 46.94-4.64L46.94-4.64L46.94-4.64Q47.84-3.78 49.35-3.78L49.35-3.78L49.35-3.78Q51.66-3.78 53.21-5.46L53.21-5.46L53.21-12.31L50.23-11.55L50.23-11.55Q46.03-10.42 46.03-7.06ZM56.24-1.55L56.24-1.55L56.24-1.55Q55.15-1.55 54.35-2.16L54.35-2.16L54.35-2.16Q53.55-2.77 53.30-3.86L53.30-3.86L53.30-3.86Q51.20-1.55 48.57-1.55L48.57-1.55L48.57-1.55Q45.95-1.55 44.39-3.05L44.39-3.05L44.39-3.05Q42.84-4.54 42.84-6.89L42.84-6.89L42.84-6.89Q42.84-11.51 49.22-12.89L49.22-12.89L53.21-13.78L53.21-15.62L53.21-15.62Q53.21-17.51 52.44-18.40L52.44-18.40L52.44-18.40Q51.66-19.28 49.52-19.28L49.52-19.28L49.52-19.28Q47.38-19.28 44.48-18.27L44.48-18.27L43.93-19.11L43.93-19.11Q47.04-21.67 50.90-21.67L50.90-21.67L50.90-21.67Q53.47-21.67 54.87-20.16L54.87-20.16L54.87-20.16Q56.28-18.65 56.28-15.96L56.28-15.96L56.28-6.01L56.28-6.01Q56.28-4.75 56.57-4.24L56.57-4.24L56.57-4.24Q56.87-3.74 57.52-3.74L57.52-3.74L57.52-3.74Q58.17-3.74 59.14-3.95L59.14-3.95L59.39-3.44L59.39-3.44Q57.96-1.55 56.24-1.55ZM72.49-19.66L72.49-19.66L72.49-19.66Q65.48-19.66 65.48-11.76L65.48-11.76L65.48-11.76Q65.48-7.64 66.97-5.69L66.97-5.69L66.97-5.69Q68.46-3.74 71.06-3.74L71.06-3.74L71.06-3.74Q73.67-3.74 75.35-5.25L75.35-5.25L75.35-19.36L75.35-19.36Q74.13-19.66 72.49-19.66ZM78.33-1.55L78.33-1.55L78.33-1.55Q77.32-1.55 76.55-2.14L76.55-2.14L76.55-2.14Q75.77-2.73 75.47-3.74L75.47-3.74L75.47-3.74Q73.29-1.55 70.08-1.55L70.08-1.55L70.08-1.55Q66.86-1.55 64.60-4.07L64.60-4.07L64.60-4.07Q62.33-6.59 62.33-11.36L62.33-11.36L62.33-11.36Q62.33-16.13 65.54-18.90L65.54-18.90L65.54-18.90Q68.75-21.67 73.46-21.67L73.46-21.67L73.46-21.67Q74.42-21.67 75.35-21.55L75.35-21.55L75.35-29.36L75.35-29.36Q74.93-29.40 74.17-29.40L74.17-29.40L74.17-29.40Q73.42-29.40 72.41-29.36L72.41-29.36L72.41-29.36Q72.41-30.07 72.58-30.53L72.58-30.53L72.58-30.53Q75.47-31.67 78.37-32.09L78.37-32.09L78.37-6.01L78.37-6.01Q78.37-4.75 78.67-4.24L78.67-4.24L78.67-4.24Q78.96-3.74 79.57-3.74L79.57-3.74L79.57-3.74Q80.18-3.74 81.23-3.95L81.23-3.95L81.52-3.44L81.52-3.44Q80.01-1.55 78.33-1.55ZM101.30-17.77L101.30-17.77L101.30-4.54L101.30-4.54Q103.07-4.45 104.03-4.45L104.03-4.45L104.03-4.45Q104.08-3.99 104.08-3.74L104.08-3.74L104.08-3.74Q104.08-3.49 104.08-3.36L104.08-3.36L104.08-3.36Q101.68-2.18 98.66-1.85L98.66-1.85L98.66-1.85Q98.36-3.40 98.28-6.13L98.28-6.13L98.28-6.13Q95.72-1.55 91.81-1.55L91.81-1.55L91.81-1.55Q89.42-1.55 87.78-3.23L87.78-3.23L87.78-3.23Q86.14-4.91 86.14-8.02L86.14-8.02L86.14-18.77L86.14-18.77Q85.60-18.82 84.99-18.82L84.99-18.82L84.99-18.82Q84.38-18.82 83.66-18.77L83.66-18.77L83.66-18.77Q83.66-19.24 83.83-19.91L83.83-19.91L83.83-19.91Q86.90-21.21 89.17-21.46L89.17-21.46L89.17-8.27L89.17-8.27Q89.17-6.22 90.15-5.04L90.15-5.04L90.15-5.04Q91.14-3.86 92.74-3.86L92.74-3.86L92.74-3.86Q94.33-3.86 95.78-4.98L95.78-4.98L95.78-4.98Q97.23-6.09 98.28-8.15L98.28-8.15L98.28-17.43L98.28-17.43Q98.28-19.40 97.10-20.16L97.10-20.16L97.10-20.16Q97.19-20.62 97.31-20.79L97.31-20.79L97.31-20.79Q98.87-21.46 101.01-21.46L101.01-21.46L101.01-21.46Q101.22-21.46 101.47-21.46L101.47-21.46L101.47-21.46Q101.30-19.95 101.30-17.77ZM110.75-7.06L110.75-7.06L110.75-7.06Q110.75-5.50 111.66-4.64L111.66-4.64L111.66-4.64Q112.56-3.78 114.07-3.78L114.07-3.78L114.07-3.78Q116.38-3.78 117.94-5.46L117.94-5.46L117.94-12.31L114.95-11.55L114.95-11.55Q110.75-10.42 110.75-7.06ZM120.96-1.55L120.96-1.55L120.96-1.55Q119.87-1.55 119.07-2.16L119.07-2.16L119.07-2.16Q118.27-2.77 118.02-3.86L118.02-3.86L118.02-3.86Q115.92-1.55 113.30-1.55L113.30-1.55L113.30-1.55Q110.67-1.55 109.12-3.05L109.12-3.05L109.12-3.05Q107.56-4.54 107.56-6.89L107.56-6.89L107.56-6.89Q107.56-11.51 113.95-12.89L113.95-12.89L117.94-13.78L117.94-15.62L117.94-15.62Q117.94-17.51 117.16-18.40L117.16-18.40L117.16-18.40Q116.38-19.28 114.24-19.28L114.24-19.28L114.24-19.28Q112.10-19.28 109.20-18.27L109.20-18.27L108.65-19.11L108.65-19.11Q111.76-21.67 115.63-21.67L115.63-21.67L115.63-21.67Q118.19-21.67 119.59-20.16L119.59-20.16L119.59-20.16Q121.00-18.65 121.00-15.96L121.00-15.96L121.00-6.01L121.00-6.01Q121.00-4.75 121.30-4.24L121.30-4.24L121.30-4.24Q121.59-3.74 122.24-3.74L122.24-3.74L122.24-3.74Q122.89-3.74 123.86-3.95L123.86-3.95L124.11-3.44L124.11-3.44Q122.68-1.55 120.96-1.55ZM129.36-5.38L129.36-5.38L129.36-29.36L129.36-29.36Q128.90-29.40 128.18-29.40L128.18-29.40L128.18-29.40Q127.47-29.40 126.42-29.36L126.42-29.36L126.42-29.36Q126.42-29.86 126.59-30.53L126.59-30.53L126.59-30.53Q129.36-31.67 132.38-32.09L132.38-32.09L132.38-3.95L132.38-3.95Q133.56-3.44 135.24-3.32L135.24-3.32L135.24-3.32Q135.24-2.56 135.11-2.06L135.11-2.06L126.50-2.06L126.50-2.06Q126.42-2.69 126.59-3.32L126.59-3.32L126.59-3.32Q128.14-3.49 128.75-3.91L128.75-3.91L128.75-3.91Q129.36-4.33 129.36-5.38ZM140.95-5.38L140.95-5.38L140.95-29.36L140.95-29.36Q140.49-29.40 139.78-29.40L139.78-29.40L139.78-29.40Q139.06-29.40 138.01-29.36L138.01-29.36L138.01-29.36Q138.01-29.86 138.18-30.53L138.18-30.53L138.18-30.53Q140.95-31.67 143.98-32.09L143.98-32.09L143.98-3.95L143.98-3.95Q145.15-3.44 146.83-3.32L146.83-3.32L146.83-3.32Q146.83-2.56 146.71-2.06L146.71-2.06L138.10-2.06L138.10-2.06Q138.01-2.69 138.18-3.32L138.18-3.32L138.18-3.32Q139.73-3.49 140.34-3.91L140.34-3.91L140.34-3.91Q140.95-4.33 140.95-5.38ZM153.09 7.39L153.09 7.39L152.54 7.39L152.54 7.39Q152.12 6.34 152.12 5.61L152.12 5.61L152.12 5.61Q152.12 4.87 152.21 4.45L152.21 4.45L153.01 4.45L153.01 4.45Q154.35 4.45 155.13 3.91L155.13 3.91L155.13 3.91Q155.90 3.36 156.66 1.81L156.66 1.81L158.17-1.43L151.62-17.60L151.62-17.60Q151.16-18.82 150.57-19.28L150.57-19.28L150.57-19.28Q149.98-19.74 148.55-19.91L148.55-19.91L148.55-19.91Q148.47-20.41 148.47-20.71L148.47-20.71L148.47-20.71Q148.47-21 148.47-21.17L148.47-21.17L157.12-21.17L157.12-21.17Q157.29-20.66 157.29-19.91L157.29-19.91L157.29-19.91Q155.36-19.74 154.35-19.32L154.35-19.32L159.68-4.70L159.68-4.70Q159.81-5.38 160.15-6.22L160.15-6.22L164.51-17.30L164.51-17.30Q164.77-17.93 164.77-18.40L164.77-18.40L164.77-18.40Q164.77-18.86 164.51-19.15L164.51-19.15L164.51-19.15Q163.97-19.74 161.95-19.91L161.95-19.91L161.95-19.91Q161.78-20.75 161.87-21.17L161.87-21.17L169.55-21.17L169.55-21.17Q169.60-20.58 169.34-19.91L169.34-19.91L169.34-19.91Q168.50-19.78 167.45-19.49L167.45-19.49L158.34 2.27L158.34 2.27Q157.21 5.00 156.03 6.20L156.03 6.20L156.03 6.20Q154.85 7.39 153.09 7.39ZM198.74-27.72L206.72-27.72L206.72-27.72Q206.72-26.88 206.60-26.54L206.60-26.54L206.60-26.54Q203.70-26.21 203.70-24.28L203.70-24.28L203.70-2.06L202.36-2.06L188.62-21.34L186.52-24.53L186.52-3.91L186.52-3.91Q187.78-3.36 189.67-3.28L189.67-3.28L189.67-3.28Q189.71-2.77 189.55-2.06L189.55-2.06L181.65-2.06L181.65-2.06Q181.61-2.27 181.61-2.58L181.61-2.58L181.61-2.58Q181.61-2.90 181.73-3.28L181.73-3.28L181.73-3.28Q184.63-3.65 184.63-5.50L184.63-5.50L184.63-25.96L184.63-25.96Q183.54-26.46 181.78-26.54L181.78-26.54L181.78-26.54Q181.78-27.30 181.90-27.72L181.90-27.72L187.66-27.72L198.45-12.64L201.81-7.60L201.81-25.91L201.81-25.91Q200.76-26.38 198.62-26.54L198.62-26.54L198.62-26.54Q198.53-27.13 198.74-27.72L198.74-27.72ZM226.25-17.77L226.25-17.77L226.25-4.54L226.25-4.54Q228.02-4.45 228.98-4.45L228.98-4.45L228.98-4.45Q229.03-3.99 229.03-3.74L229.03-3.74L229.03-3.74Q229.03-3.49 229.03-3.36L229.03-3.36L229.03-3.36Q226.63-2.18 223.61-1.85L223.61-1.85L223.61-1.85Q223.31-3.40 223.23-6.13L223.23-6.13L223.23-6.13Q220.67-1.55 216.76-1.55L216.76-1.55L216.76-1.55Q214.37-1.55 212.73-3.23L212.73-3.23L212.73-3.23Q211.09-4.91 211.09-8.02L211.09-8.02L211.09-18.77L211.09-18.77Q210.55-18.82 209.94-18.82L209.94-18.82L209.94-18.82Q209.33-18.82 208.61-18.77L208.61-18.77L208.61-18.77Q208.61-19.24 208.78-19.91L208.78-19.91L208.78-19.91Q211.85-21.21 214.12-21.46L214.12-21.46L214.12-8.27L214.12-8.27Q214.12-6.22 215.10-5.04L215.10-5.04L215.10-5.04Q216.09-3.86 217.69-3.86L217.69-3.86L217.69-3.86Q219.28-3.86 220.73-4.98L220.73-4.98L220.73-4.98Q222.18-6.09 223.23-8.15L223.23-8.15L223.23-17.43L223.23-17.43Q223.23-19.40 222.05-20.16L222.05-20.16L222.05-20.16Q222.14-20.62 222.26-20.79L222.26-20.79L222.26-20.79Q223.82-21.46 225.96-21.46L225.96-21.46L225.96-21.46Q226.17-21.46 226.42-21.46L226.42-21.46L226.42-21.46Q226.25-19.95 226.25-17.77ZM262.12-15.41L262.12-15.41L262.12-3.95L262.12-3.95Q263.42-3.44 265.06-3.32L265.06-3.32L265.06-3.32Q265.06-2.56 264.94-2.06L264.94-2.06L256.37-2.06L256.37-2.06Q256.28-2.69 256.45-3.32L256.45-3.32L256.45-3.32Q257.96-3.49 258.51-3.91L258.51-3.91L258.51-3.91Q259.06-4.33 259.06-5.38L259.06-5.38L259.06-15.16L259.06-15.16Q259.06-17.22 258.09-18.31L258.09-18.31L258.09-18.31Q257.12-19.40 255.44-19.40L255.44-19.40L255.44-19.40Q251.75-19.40 249.94-15.04L249.94-15.04L249.94-3.95L249.94-3.95Q251.12-3.44 252.80-3.32L252.80-3.32L252.80-3.32Q252.80-2.56 252.67-2.06L252.67-2.06L244.23-2.06L244.23-2.06Q244.19-2.56 244.27-3.32L244.27-3.32L244.27-3.32Q245.78-3.49 246.35-3.91L246.35-3.91L246.35-3.91Q246.92-4.33 246.92-5.38L246.92-5.38L246.92-15.16L246.92-15.16Q246.92-17.22 245.95-18.31L245.95-18.31L245.95-18.31Q244.99-19.40 243.26-19.40L243.26-19.40L243.26-19.40Q239.61-19.40 237.80-15.04L237.80-15.04L237.80-3.95L237.80-3.95Q238.98-3.44 240.66-3.32L240.66-3.32L240.66-3.32Q240.66-2.56 240.53-2.06L240.53-2.06L231.92-2.06L231.92-2.06Q231.84-2.69 232.01-3.32L232.01-3.32L232.01-3.32Q233.56-3.49 234.17-3.91L234.17-3.91L234.17-3.91Q234.78-4.33 234.78-5.38L234.78-5.38L234.78-18.73L234.78-18.73Q233.56-18.77 232.89-18.77L232.89-18.77L232.89-18.77Q232.22-18.77 231.84-18.77L231.84-18.77L231.84-18.77Q231.84-19.28 232.01-19.87L232.01-19.87L232.01-19.87Q234.78-20.96 237.47-21.42L237.47-21.42L237.47-21.42Q237.72-19.82 237.80-17.30L237.80-17.30L237.80-17.30Q239.95-21.67 244.31-21.67L244.31-21.67L244.31-21.67Q246.41-21.67 247.91-20.50L247.91-20.50L247.91-20.50Q249.40-19.32 249.82-17.05L249.82-17.05L249.82-17.05Q251.96-21.67 256.45-21.67L256.45-21.67L256.45-21.67Q258.93-21.67 260.53-20.05L260.53-20.05L260.53-20.05Q262.12-18.44 262.12-15.41ZM280.98-14.66L280.98-14.66Q280.94-17.39 279.68-18.69L279.68-18.69L279.68-18.69Q278.42-19.99 276.63-19.99L276.63-19.99L276.63-19.99Q274.85-19.99 273.29-18.56L273.29-18.56L273.29-18.56Q271.74-17.14 271.28-14.28L271.28-14.28L276.15-14.62L280.98-14.66ZM271.07-11.93L271.07-11.93L271.07-11.93Q271.07-8.02 272.69-5.90L272.69-5.90L272.69-5.90Q274.30-3.78 277.41-3.78L277.41-3.78L277.41-3.78Q280.52-3.78 283.54-5.80L283.54-5.80L283.92-5.04L283.92-5.04Q280.85-1.55 276.40-1.55L276.40-1.55L276.40-1.55Q273.25-1.55 270.69-3.86L270.69-3.86L270.69-3.86Q269.39-5.04 268.61-6.95L268.61-6.95L268.61-6.95Q267.83-8.86 267.83-11.26L267.83-11.26L267.83-11.26Q267.83-16.17 270.69-18.92L270.69-18.92L270.69-18.92Q273.55-21.67 276.82-21.67L276.82-21.67L276.82-21.67Q280.10-21.67 282.14-19.59L282.14-19.59L282.14-19.59Q284.17-17.51 284.17-13.65L284.17-13.65L284.17-13.65Q283.92-13.19 283.71-12.89L283.71-12.89L271.11-12.89L271.11-12.89Q271.07-12.60 271.07-11.93ZM293.03-16.17L293.03-16.17L293.03-15.88L293.03-15.88Q294.04-18.48 296.06-20.08L296.06-20.08L296.06-20.08Q298.07-21.67 300.38-21.67L300.38-21.67L300.38-21.67Q300.59-21.17 300.59-20.43L300.59-20.43L300.59-20.43Q300.59-19.70 300.30-18.69L300.30-18.69L300.30-18.69Q296.81-18.69 294.59-16.38L294.59-16.38L294.59-16.38Q293.33-14.99 293.03-12.94L293.03-12.94L293.03-4.20L293.03-4.20Q294.92-3.44 297.44-3.32L297.44-3.32L297.44-3.32Q297.44-2.52 297.28-2.06L297.28-2.06L287.15-2.06L287.15-2.06Q287.11-2.56 287.20-3.32L287.20-3.32L287.20-3.32Q288.79-3.53 289.40-3.95L289.40-3.95L289.40-3.95Q290.01-4.37 290.01-5.42L290.01-5.42L290.01-18.73L290.01-18.73Q288.79-18.77 288.12-18.77L288.12-18.77L288.12-18.77Q287.45-18.77 287.07-18.77L287.07-18.77L287.07-18.77Q287.07-19.28 287.24-19.87L287.24-19.87L287.24-19.87Q290.01-20.96 292.70-21.42L292.70-21.42L292.70-21.42Q293.03-19.28 293.03-16.17ZM307.88-25.87L307.88-25.87L307.88-25.87Q307.23-25.20 306.31-25.20L306.31-25.20L306.31-25.20Q305.38-25.20 304.71-25.87L304.71-25.87L304.71-25.87Q304.04-26.54 304.04-27.47L304.04-27.47L304.04-27.47Q304.04-28.39 304.71-29.06L304.71-29.06L304.71-29.06Q305.38-29.74 306.31-29.74L306.31-29.74L306.31-29.74Q307.23-29.74 307.88-29.09L307.88-29.09L307.88-29.09Q308.53-28.43 308.53-27.49L308.53-27.49L308.53-27.49Q308.53-26.54 307.88-25.87ZM304.84-5.38L304.84-5.38L304.84-18.69L304.84-18.69Q304.16-18.73 303.43-18.73L303.43-18.73L303.43-18.73Q302.69-18.73 301.90-18.69L301.90-18.69L301.90-18.69Q301.90-19.11 302.06-19.87L302.06-19.87L302.06-19.87Q305.00-20.96 307.86-21.42L307.86-21.42L307.86-3.95L307.86-3.95Q309.04-3.44 310.72-3.32L310.72-3.32L310.72-3.32Q310.72-2.56 310.59-2.06L310.59-2.06L301.98-2.06L301.98-2.06Q301.90-2.69 302.06-3.32L302.06-3.32L302.06-3.32Q303.62-3.49 304.23-3.91L304.23-3.91L304.23-3.91Q304.84-4.33 304.84-5.38ZM329.28-5.29L329.83-4.62L329.83-4.62Q326.55-1.55 322.79-1.55L322.79-1.55L322.79-1.55Q319.03-1.55 316.53-4.22L316.53-4.22L316.53-4.22Q314.03-6.89 314.03-11.40L314.03-11.40L314.03-11.40Q314.03-15.92 316.76-18.80L316.76-18.80L316.76-18.80Q319.49-21.67 323.78-21.67L323.78-21.67L323.78-21.67Q327.14-21.67 329.45-20.03L329.45-20.03L329.45-20.03Q329.45-17.85 329.07-15.50L329.07-15.50L328.19-15.62L328.19-15.62Q328.19-17.64 326.89-18.80L326.89-18.80L326.89-18.80Q325.58-19.95 323.53-19.95L323.53-19.95L323.53-19.95Q320.71-19.95 319.01-17.70L319.01-17.70L319.01-17.70Q317.31-15.46 317.31-11.68L317.31-11.68L317.31-11.68Q317.31-7.90 318.97-5.71L318.97-5.71L318.97-5.71Q320.63-3.53 323.44-3.53L323.44-3.53L323.44-3.53Q326.26-3.53 329.28-5.29L329.28-5.29ZM336.38-7.06L336.38-7.06L336.38-7.06Q336.38-5.50 337.28-4.64L337.28-4.64L337.28-4.64Q338.18-3.78 339.70-3.78L339.70-3.78L339.70-3.78Q342.01-3.78 343.56-5.46L343.56-5.46L343.56-12.31L340.58-11.55L340.58-11.55Q336.38-10.42 336.38-7.06ZM346.58-1.55L346.58-1.55L346.58-1.55Q345.49-1.55 344.69-2.16L344.69-2.16L344.69-2.16Q343.90-2.77 343.64-3.86L343.64-3.86L343.64-3.86Q341.54-1.55 338.92-1.55L338.92-1.55L338.92-1.55Q336.29-1.55 334.74-3.05L334.74-3.05L334.74-3.05Q333.19-4.54 333.19-6.89L333.19-6.89L333.19-6.89Q333.19-11.51 339.57-12.89L339.57-12.89L343.56-13.78L343.56-15.62L343.56-15.62Q343.56-17.51 342.78-18.40L342.78-18.40L342.78-18.40Q342.01-19.28 339.86-19.28L339.86-19.28L339.86-19.28Q337.72-19.28 334.82-18.27L334.82-18.27L334.28-19.11L334.28-19.11Q337.39-21.67 341.25-21.67L341.25-21.67L341.25-21.67Q343.81-21.67 345.22-20.16L345.22-20.16L345.22-20.16Q346.63-18.65 346.63-15.96L346.63-15.96L346.63-6.01L346.63-6.01Q346.63-4.75 346.92-4.24L346.92-4.24L346.92-4.24Q347.21-3.74 347.87-3.74L347.87-3.74L347.87-3.74Q348.52-3.74 349.48-3.95L349.48-3.95L349.73-3.44L349.73-3.44Q348.31-1.55 346.58-1.55ZM354.98-5.38L354.98-5.38L354.98-29.36L354.98-29.36Q354.52-29.40 353.81-29.40L353.81-29.40L353.81-29.40Q353.09-29.40 352.04-29.36L352.04-29.36L352.04-29.36Q352.04-29.86 352.21-30.53L352.21-30.53L352.21-30.53Q354.98-31.67 358.01-32.09L358.01-32.09L358.01-3.95L358.01-3.95Q359.18-3.44 360.86-3.32L360.86-3.32L360.86-3.32Q360.86-2.56 360.74-2.06L360.74-2.06L352.13-2.06L352.13-2.06Q352.04-2.69 352.21-3.32L352.21-3.32L352.21-3.32Q353.77-3.49 354.38-3.91L354.38-3.91L354.38-3.91Q354.98-4.33 354.98-5.38Z" fill="#ccc"></path></g></g><style>text {
  font-size: 64px;
  font-family: Arial Black;
  dominant-baseline: central;
  text-anchor: middle;
}</style></svg>